<?xml version="1.0" encoding="utf-8"?>
<!-- Generator: Adobe Illustrator 23.0.3, SVG Export Plug-In . SVG Version: 6.00 Build 0)  -->
<svg version="1.1" id="Layer_1" xmlns="http://www.w3.org/2000/svg" xmlns:xlink="http://www.w3.org/1999/xlink" x="0px" y="0px"
	 viewBox="0 0 50 50" style="enable-background:new 0 0 50 50;" xml:space="preserve">
<style type="text/css">
	.st0{fill:none;stroke:#0C0C0C;stroke-width:1.5;stroke-linecap:round;stroke-linejoin:round;stroke-miterlimit:10;}
	.st1{fill:#0C0C0C;}
	.st2{fill:url(#SVGID_1_);}
	.st3{fill:url(#SVGID_2_);}
	.st4{fill:url(#SVGID_3_);}
	.st5{fill:url(#SVGID_4_);}
	.st6{fill:url(#SVGID_5_);}
	.st7{fill:url(#SVGID_6_);}
	.st8{fill:url(#SVGID_7_);}
	.st9{fill:url(#SVGID_8_);}
	.st10{fill:url(#SVGID_9_);}
	.st11{fill:url(#SVGID_10_);}
	.st12{fill:url(#SVGID_11_);}
	.st13{fill:url(#SVGID_12_);}
	.st14{fill:url(#SVGID_13_);}
	.st15{fill:url(#SVGID_14_);}
	.st16{fill:url(#SVGID_15_);}
	.st17{fill:#DB2427;}
	.st18{fill:url(#SVGID_16_);}
	.st19{fill:url(#SVGID_17_);}
</style>
<g>
	<g>
		<path d="M48.6,42.1l-8.8-15.4c0.4,0.4,0.9,0.6,1.5,0.6c1.2,0,2.3-1,2.3-2.3s-1-2.3-2.3-2.3c-1,0-1.8,0.6-2.1,1.5h-1.7
			c-0.1-1.9-0.6-3.8-1.5-5.4l1.5-0.8c0.3,0.2,0.5,0.4,0.9,0.5c0.2,0,0.4,0.1,0.6,0.1c0.4,0,0.8-0.1,1.1-0.3c0.5-0.3,0.9-0.8,1-1.4
			c0.2-0.6,0.1-1.2-0.2-1.7s-0.8-0.9-1.4-1c-0.6-0.2-1.2-0.1-1.7,0.2c-0.5,0.3-0.9,0.8-1,1.4c-0.1,0.3-0.1,0.7,0,1l-1.4,0.8
			c-1-1.5-2.3-2.8-3.8-3.8l0.9-1.5c0.1,0,0.3,0.1,0.4,0.1c0.8,0,1.5-0.4,1.9-1.1c0.6-1.1,0.3-2.5-0.8-3.1c-1.1-0.6-2.5-0.3-3.1,0.8
			c-0.5,0.8-0.4,1.9,0.2,2.6l-0.9,1.4c-1.7-0.9-3.5-1.4-5.5-1.5V9.7c0.9-0.3,1.5-1.1,1.5-2.1c0-1.2-1-2.3-2.3-2.3s-2.3,1-2.3,2.3
			c0,1,0.6,1.8,1.5,2.1v1.7c-1.9,0.1-3.8,0.6-5.4,1.5l-0.8-1.5c0.6-0.7,0.7-1.7,0.2-2.6c0,0,0,0,0,0c-0.3-0.5-0.8-0.9-1.4-1
			c-0.6-0.2-1.2-0.1-1.7,0.2c-0.5,0.3-0.9,0.8-1,1.4c-0.2,0.6-0.1,1.2,0.2,1.7c0.4,0.7,1.2,1.1,2,1.1c0.1,0,0.3,0,0.4-0.1l0.8,1.5
			c-1.5,1-2.8,2.3-3.8,3.8l-1.4-0.8c0.1-0.3,0.1-0.7,0-1c-0.2-0.6-0.5-1.1-1-1.4C9.6,13.9,9,13.9,8.4,14c-0.6,0.2-1.1,0.5-1.4,1
			c-0.6,1.1-0.3,2.5,0.8,3.1c0.4,0.2,0.8,0.3,1.1,0.3c0.5,0,1-0.2,1.4-0.5l1.5,0.9c-0.9,1.7-1.4,3.5-1.5,5.5H8.7
			c-0.3-0.9-1.1-1.5-2.1-1.5c-1.2,0-2.3,1-2.3,2.3s1,2.3,2.3,2.3c1,0,1.8-0.6,2.1-1.5h1.7c0.1,1.9,0.6,3.8,1.5,5.4L10.4,32
			c-0.7-0.6-1.7-0.7-2.6-0.2c-0.5,0.3-0.9,0.8-1,1.4c-0.2,0.6-0.1,1.2,0.2,1.7s0.8,0.9,1.4,1C8.6,36,8.8,36,8.9,36
			c0.4,0,0.8-0.1,1.1-0.3c0.8-0.5,1.2-1.5,1.1-2.4l1.4-0.8c1,1.5,2.3,2.8,3.8,3.8l-0.8,1.4c-0.9-0.2-1.9,0.2-2.4,1.1
			c-0.6,1.1-0.3,2.5,0.8,3.1c0.4,0.2,0.8,0.3,1.1,0.3c0.8,0,1.5-0.4,1.9-1.1c0.5-0.8,0.4-1.9-0.2-2.6l0.9-1.4
			c1.7,0.9,3.5,1.4,5.5,1.5v1.7c-0.9,0.3-1.5,1.1-1.5,2.1c0,1.2,1,2.3,2.3,2.3s2.3-1,2.3-2.3c0-1-0.6-1.8-1.5-2.1v-1.7
			c1.9-0.1,3.8-0.6,5.4-1.5l0.2,0.4L27.8,42c-0.1,0.2-0.1,0.5,0,0.7c0.1,0.2,0.4,0.4,0.6,0.4l19.5,0c0,0,0,0,0,0
			c0.3,0,0.5-0.1,0.6-0.4S48.7,42.3,48.6,42.1z M38.2,16.1c0.1-0.2,0.2-0.4,0.3-0.5c0.1-0.1,0.2-0.1,0.4-0.1c0.1,0,0.1,0,0.2,0
			c0.2,0.1,0.4,0.2,0.5,0.3c0.2,0.4,0.1,0.8-0.3,1c0,0,0,0,0,0C39.2,17,39,17,38.8,17c-0.2-0.1-0.4-0.2-0.5-0.3
			C38.2,16.4,38.2,16.2,38.2,16.1z M32.1,9.6c0.1-0.2,0.4-0.4,0.7-0.4c0.1,0,0.3,0,0.4,0.1c0.4,0.2,0.5,0.7,0.3,1
			c-0.2,0.4-0.7,0.5-1,0.3C32,10.5,31.9,10,32.1,9.6z M15.6,10.6c-0.4,0.2-0.8,0.1-1-0.3c-0.1-0.2-0.1-0.4-0.1-0.6
			c0.1-0.2,0.2-0.4,0.4-0.5c0.1-0.1,0.2-0.1,0.4-0.1c0.1,0,0.1,0,0.2,0c0.2,0.1,0.4,0.2,0.5,0.3C16.1,10,15.9,10.4,15.6,10.6z
			 M9.6,16.6c-0.2,0.4-0.7,0.5-1,0.3c-0.4-0.2-0.5-0.7-0.3-1c0.1-0.2,0.3-0.3,0.5-0.3c0.1,0,0.1,0,0.2,0c0.1,0,0.3,0,0.4,0.1
			c0.2,0.1,0.3,0.3,0.3,0.5C9.8,16.2,9.7,16.4,9.6,16.6z M6.6,25.7c-0.4,0-0.8-0.3-0.8-0.8s0.3-0.8,0.8-0.8s0.8,0.3,0.8,0.8
			S7,25.7,6.6,25.7z M9.3,34.4c-0.2,0.1-0.4,0.1-0.6,0.1c-0.2-0.1-0.4-0.2-0.5-0.3c-0.1-0.2-0.1-0.4-0.1-0.6s0.2-0.4,0.3-0.5
			c0,0,0,0,0,0C8.7,33,8.8,33,8.9,33c0.3,0,0.5,0.1,0.7,0.4C9.8,33.7,9.7,34.2,9.3,34.4z M15.8,40.4c-0.2,0.4-0.7,0.5-1,0.3
			c-0.4-0.2-0.5-0.7-0.3-1c0.1-0.2,0.4-0.4,0.7-0.4c0.1,0,0.3,0,0.4,0.1C15.9,39.5,16,40,15.8,40.4z M41.3,24.2
			c0.4,0,0.8,0.3,0.8,0.8s-0.3,0.8-0.8,0.8s-0.8-0.3-0.8-0.8S40.9,24.2,41.3,24.2z M23.2,7.6c0-0.4,0.3-0.8,0.8-0.8s0.8,0.3,0.8,0.8
			s-0.3,0.8-0.8,0.8S23.2,8,23.2,7.6z M24.7,42.4c0,0.4-0.3,0.8-0.8,0.8s-0.8-0.3-0.8-0.8s0.3-0.8,0.8-0.8S24.7,41.9,24.7,42.4z
			 M23.9,37.1c-6.7,0-12.1-5.4-12.1-12.1s5.4-12.1,12.1-12.1c6.7,0,12.1,5.4,12.1,12.1c0,1.2-0.2,2.4-0.5,3.6l-2.6,4.6
			C30.7,35.6,27.5,37.1,23.9,37.1z M29.7,41.6l8.5-14.8l8.5,14.8L29.7,41.6z"/>
		<path d="M37.4,31.1v5.1c0,0.4,0.3,0.8,0.8,0.8s0.8-0.3,0.8-0.8v-5.1c0-0.4-0.3-0.8-0.8-0.8S37.4,30.6,37.4,31.1z"/>
		<path d="M37,39.5c0,0.6,0.5,1.2,1.2,1.2c0.6,0,1.2-0.5,1.2-1.2c0-0.6-0.5-1.2-1.2-1.2C37.6,38.3,37,38.8,37,39.5z M38.5,39.5
			c0,0.2-0.2,0.3-0.3,0.3c-0.2,0-0.3-0.2-0.3-0.3c0-0.2,0.2-0.3,0.3-0.3C38.4,39.1,38.5,39.3,38.5,39.5z"/>
		<path d="M18.2,22.7c-0.1,0-0.2,0-0.3,0.1c-0.1,0.1-0.1,0.2-0.1,0.3c-0.1,0.2-0.2,0.4-0.4,0.5c-0.2,0.1-0.4,0.2-0.6,0.2
			c-0.2,0-0.4-0.1-0.6-0.2s-0.3-0.3-0.4-0.5c-0.1-0.2-0.1-0.5-0.1-0.8c0-0.5,0.1-0.9,0.3-1.2s0.5-0.4,0.9-0.4c0.2,0,0.4,0.1,0.6,0.2
			c0.2,0.1,0.3,0.3,0.4,0.5c0.1,0.1,0.1,0.2,0.2,0.3c0.1,0.1,0.1,0.1,0.3,0.1c0.1,0,0.2,0,0.3-0.1s0.1-0.2,0.1-0.3
			c0-0.2-0.1-0.4-0.2-0.6c-0.1-0.2-0.4-0.4-0.6-0.5s-0.6-0.2-0.9-0.2c-0.3,0-0.6,0.1-0.8,0.2s-0.5,0.3-0.7,0.4
			c-0.2,0.2-0.3,0.4-0.4,0.7s-0.2,0.6-0.2,0.9c0,0.2,0,0.4,0.1,0.6c0,0.2,0.1,0.4,0.2,0.5c0.1,0.2,0.2,0.3,0.3,0.5
			c0.1,0.1,0.3,0.3,0.4,0.4c0.2,0.1,0.3,0.2,0.5,0.2s0.4,0.1,0.6,0.1c0.3,0,0.6,0,0.8-0.1s0.4-0.2,0.6-0.4c0.1-0.2,0.3-0.3,0.3-0.5
			c0.1-0.2,0.1-0.3,0.1-0.4c0-0.1,0-0.2-0.1-0.3S18.3,22.7,18.2,22.7z"/>
		<path d="M22.4,20.3c-0.3-0.2-0.7-0.3-1.1-0.3c-0.3,0-0.6,0.1-0.9,0.2c-0.3,0.1-0.5,0.3-0.7,0.4s-0.3,0.4-0.4,0.7
			c-0.1,0.3-0.1,0.6-0.1,0.9c0,0.3,0,0.6,0.1,0.9c0.1,0.3,0.2,0.5,0.4,0.7s0.4,0.4,0.7,0.5c0.3,0.1,0.6,0.2,0.9,0.2
			c0.3,0,0.6-0.1,0.9-0.2s0.5-0.3,0.7-0.5s0.3-0.4,0.4-0.7s0.1-0.6,0.1-0.9c0-0.4-0.1-0.8-0.2-1.2C23,20.8,22.7,20.5,22.4,20.3z
			 M22.3,23.1c-0.1,0.2-0.3,0.4-0.4,0.5c-0.2,0.1-0.4,0.2-0.6,0.2c-0.2,0-0.3,0-0.5-0.1s-0.3-0.2-0.4-0.3c-0.1-0.1-0.2-0.3-0.3-0.5
			c-0.1-0.2-0.1-0.4-0.1-0.7c0-0.2,0-0.5,0.1-0.7c0.1-0.2,0.1-0.4,0.3-0.5c0.1-0.1,0.2-0.2,0.4-0.3c0.1-0.1,0.3-0.1,0.5-0.1
			c0.2,0,0.5,0.1,0.6,0.2c0.2,0.1,0.3,0.3,0.4,0.5s0.2,0.5,0.2,0.8C22.5,22.6,22.4,22.9,22.3,23.1z"/>
		<path d="M24.9,24c0,0.1,0.1,0.2,0.1,0.3c0.1,0.1,0.1,0.1,0.2,0.2c0.1,0,0.2,0.1,0.3,0.1s0.2,0,0.3-0.1s0.1-0.1,0.2-0.2
			c0-0.1,0.1-0.2,0.1-0.3c0-0.1,0.1-0.2,0.1-0.3l1-2.8c0-0.1,0-0.1,0.1-0.1c0,0,0-0.1,0-0.1c0,0,0-0.1,0-0.1c0-0.1,0-0.1-0.1-0.2
			c0-0.1-0.1-0.1-0.1-0.1c-0.1,0-0.1-0.1-0.2-0.1c-0.1,0-0.2,0-0.2,0.1c-0.1,0-0.1,0.1-0.1,0.2c0,0.1-0.1,0.2-0.1,0.3l-1,2.9l-1-2.9
			c-0.1-0.2-0.1-0.3-0.2-0.4c-0.1-0.1-0.2-0.1-0.3-0.1c-0.1,0-0.2,0-0.3,0.1s-0.1,0.2-0.1,0.3c0,0,0,0.1,0,0.1s0,0.1,0,0.2
			s0,0.1,0.1,0.2l1,2.8C24.8,23.8,24.9,23.9,24.9,24z"/>
		<path d="M28.6,20.1c-0.1,0-0.2,0-0.3,0.1s-0.1,0.2-0.1,0.4V24c0,0.2,0,0.3,0.1,0.4s0.2,0.1,0.3,0.1c0.1,0,0.2,0,0.3-0.1
			S29,24.2,29,24v-3.4c0-0.2,0-0.3-0.1-0.4C28.8,20.1,28.7,20.1,28.6,20.1z"/>
		<path d="M33,20.5c-0.2-0.2-0.4-0.3-0.6-0.3s-0.5-0.1-0.8-0.1h-1.1c-0.2,0-0.3,0-0.4,0.1S30,20.5,30,20.7v3.1c0,0.1,0,0.3,0,0.3
			c0,0.1,0.1,0.2,0.2,0.2c0.1,0,0.2,0.1,0.4,0.1h1.1c0.2,0,0.4,0,0.5,0c0.2,0,0.3-0.1,0.4-0.1s0.3-0.1,0.4-0.3
			c0.1-0.1,0.3-0.3,0.4-0.5c0.1-0.2,0.2-0.4,0.2-0.6s0.1-0.4,0.1-0.7C33.6,21.5,33.4,20.9,33,20.5z M32.3,23.5
			c-0.1,0.1-0.1,0.1-0.2,0.1s-0.2,0.1-0.3,0.1s-0.2,0-0.3,0h-0.7v-2.9h0.6c0.3,0,0.5,0,0.7,0.1c0.2,0.1,0.3,0.2,0.5,0.4
			c0.1,0.2,0.2,0.5,0.2,1C32.8,22.9,32.6,23.3,32.3,23.5z"/>
		<path d="M22.8,27.1c-0.1,0-0.2,0-0.2,0.1s-0.1,0.1-0.2,0.3s-0.2,0.3-0.4,0.4s-0.3,0.2-0.6,0.4c-0.2,0.1-0.3,0.1-0.3,0.2
			S21,28.5,21,28.6c0,0.1,0,0.2,0.1,0.2c0.1,0.1,0.1,0.1,0.2,0.1c0.2,0,0.5-0.2,1-0.6V31c0,0.2,0,0.3,0.1,0.4s0.2,0.1,0.3,0.1
			c0.3,0,0.4-0.2,0.4-0.6v-3.4c0-0.1,0-0.3-0.1-0.3S22.9,27.1,22.8,27.1z"/>
		<path d="M27,27.7c-0.1-0.2-0.3-0.3-0.5-0.4s-0.4-0.1-0.7-0.1c-0.2,0-0.4,0-0.6,0.1c-0.2,0.1-0.3,0.2-0.5,0.3s-0.2,0.3-0.3,0.5
			c-0.1,0.2-0.1,0.4-0.1,0.6c0,0.2,0,0.4,0.1,0.5c0.1,0.2,0.2,0.3,0.3,0.4c0.1,0.1,0.3,0.2,0.4,0.3c0.2,0.1,0.3,0.1,0.5,0.1
			c0.2,0,0.4,0,0.5-0.1c0.2-0.1,0.3-0.2,0.4-0.3c0,0.5-0.1,0.9-0.3,1.1c-0.1,0.1-0.2,0.2-0.3,0.2S25.9,31,25.8,31
			c-0.1,0-0.2,0-0.3-0.1c-0.1-0.1-0.2-0.2-0.2-0.3c0-0.1-0.1-0.2-0.2-0.2c-0.1,0-0.1-0.1-0.2-0.1c-0.1,0-0.2,0-0.2,0.1
			s-0.1,0.1-0.1,0.2c0,0.1,0,0.3,0.1,0.4c0.1,0.1,0.2,0.3,0.4,0.4c0.2,0.1,0.4,0.1,0.7,0.1c0.3,0,0.5,0,0.7-0.1
			c0.2-0.1,0.4-0.2,0.5-0.4c0.1-0.2,0.3-0.4,0.3-0.7c0.1-0.3,0.1-0.6,0.1-1c0-0.3,0-0.6-0.1-0.9S27.2,27.8,27,27.7z M26.5,29
			c-0.1,0.1-0.2,0.2-0.3,0.3c-0.1,0.1-0.2,0.1-0.3,0.1c-0.2,0-0.4-0.1-0.5-0.2s-0.2-0.4-0.2-0.6c0-0.3,0.1-0.5,0.2-0.6
			c0.1-0.2,0.3-0.2,0.5-0.2c0.1,0,0.2,0,0.3,0.1c0.1,0,0.2,0.1,0.2,0.2c0.1,0.1,0.1,0.2,0.2,0.3c0,0.1,0.1,0.2,0.1,0.4
			C26.6,28.8,26.5,28.9,26.5,29z"/>
	</g>
</g>
</svg>
